<svg xmlns="http://www.w3.org/2000/svg" width="24" height="24" viewBox="0 0 24 24" fill="none" stroke="#16a34a" stroke-width="2" stroke-linecap="round" stroke-linejoin="round" class="lucide lucide-sprout">
  <path d="M7 20h10"></path>
  <path d="M10 20c0-3.75 0-10 0-10a3 3 0 0 1 3-3s2 0 3 0a3 3 0 0 1 3 3v10"></path>
  <path d="M8 8.6V4a2 2 0 0 1 2-2h4a2 2 0 0 1 2 2v.5"></path>
  <path d="M7.1 15c.46-2 1.46-3 2.9-3 1.56 0 3 1.4 3 3v5"></path>
  <path d="M2 9V5c0-1.1.9-2 2-2h6"></path>
  <path d="M11 6V3"></path>
</svg>